<?xml version="1.0" ?><svg id="Layer_1" style="enable-background:new 0 0 50 50;" version="1.1" viewBox="0 0 50 50" xml:space="preserve" xmlns="http://www.w3.org/2000/svg" xmlns:xlink="http://www.w3.org/1999/xlink"><style type="text/css">
	.st0{fill:#F0C4DB;}
	.st1{fill:#FF9D9C;}
	.st2{fill:#9BEAF9;}
	.st3{fill:#E9F4BC;}
	.st4{fill:#505050;}
	.st5{fill:#FEBECC;}
	.st6{fill:#FFFFFF;}
	.st7{fill:#FDE4A1;}
	.st8{fill:#FEE7B5;}
	.st9{fill:#CDF6FC;}
	.st10{fill:#F2C6DD;}
	.st11{opacity:0.1;}
</style><g><path class="st5" d="M15.51,12.33c-5.61,0-10.7,2.22-14.47,5.8v29.73h29.6c3.63-3.77,5.87-8.89,5.87-14.54   C36.51,21.73,27.11,12.33,15.51,12.33z"/><g><path class="st2" d="M19.55,38.22l-3.17-10.73H9.01l3.76,12.73c0.44,1.5,1.82,2.53,3.39,2.53h0    C18.52,42.75,20.22,40.48,19.55,38.22z"/><path class="st6" d="M8.14,14.99c-3.45,0-6.25,2.8-6.25,6.25s2.8,6.25,6.25,6.25h11.33v-12.5H8.14z"/><polygon class="st3" points="37.09,39.59 19.48,27.49 19.48,14.99 37.09,2.89   "/><path class="st1" d="M41.65,14.68c-0.19,0-0.38,0-0.56,0.03v13.04c0.17,0.03,0.37,0.03,0.56,0.03c3.63,0,6.56-2.95,6.56-6.56    S45.27,14.68,41.65,14.68z"/><rect class="st7" height="36.7" width="4" x="37.09" y="2.89"/><g><path class="st4" d="M28.65,9.43c0.15,0,0.3-0.05,0.42-0.13c0.17-0.11,0.28-0.29,0.32-0.48c0.03-0.2-0.01-0.4-0.12-0.56     c-0.23-0.33-0.71-0.42-1.05-0.2c-0.16,0.12-0.27,0.29-0.31,0.48c-0.04,0.2,0.01,0.4,0.12,0.56C28.17,9.31,28.4,9.43,28.65,9.43z"/><path class="st4" d="M48.95,21.24c0-3.96-3.17-7.19-7.11-7.3V2.89c0-0.41-0.34-0.75-0.75-0.75h-4c-0.01,0-0.02,0-0.03,0.01     c-0.02,0-0.04,0.01-0.07,0.01c-0.1,0.01-0.2,0.05-0.29,0.1c-0.01,0.01-0.03,0.01-0.05,0.02l-6.79,4.66     c-0.34,0.23-0.42,0.7-0.19,1.04c0.23,0.33,0.71,0.42,1.04,0.2l5.62-3.86v33.85L20.22,27.09V15.38l7.2-4.95     c0.34-0.23,0.43-0.7,0.2-1.04c-0.23-0.33-0.72-0.42-1.04-0.19l-7.33,5.03H8.14c-3.86,0-7,3.14-7,7c0,3.86,3.14,7,7,7h0.3     l3.6,12.2c0.53,1.81,2.22,3.07,4.11,3.07c1.37,0,2.62-0.63,3.43-1.72c0.82-1.09,1.06-2.47,0.68-3.78l-2.88-9.77h1.86L36.66,40.2     c0.03,0.02,0.06,0.03,0.08,0.04c0.03,0.01,0.05,0.03,0.08,0.04c0.06,0.02,0.12,0.03,0.19,0.04c0.02,0,0.04,0.01,0.07,0.01h4     c0.41,0,0.75-0.34,0.75-0.75V28.53C45.78,28.43,48.95,25.2,48.95,21.24z M2.65,21.24c0-3.03,2.47-5.5,5.5-5.5h10.58v11H8.14     C5.11,26.74,2.65,24.27,2.65,21.24z M18.83,38.43c0.25,0.85,0.09,1.75-0.44,2.46C17.86,41.6,17.04,42,16.16,42     c-1.23,0-2.32-0.82-2.67-2l-3.48-11.77h5.81L18.83,38.43z M40.34,38.84h-2.5V3.64h2.5v11.08v13.04V38.84z M41.84,27.04V15.43     c3.11,0.1,5.61,2.67,5.61,5.8S44.95,26.94,41.84,27.04z"/></g></g></g></svg>
